wdth125.ufo
<glyph name="A" format="2">
	<unicode hex="0041"/>
	<advance width="1478"/>
	<outline>
		<contour>
			<point x="-52.1689453125" y="0" type="line"/>
			<point x="-50.1689453125" y="100" type="line"/>
			<point x="137.8286132812" y="135" type="line"/>
			<point x="295.395324707" y="524.3444824219" type="line"/>
			<point x="674.4666137695" y="1508" type="line"/>
			<point x="789.4094238281" y="1508" type="line"/>
			<point x="1146.182800293" y="586.9197998047" type="line"/>
			<point x="1338.1583862305" y="135" type="line"/>
			<point x="1506.1559448242" y="100" type="line"/>
			<point x="1504.1559448242" y="0" type="line"/>
			<point x="963.958190918" y="0" type="line"/>
			<point x="965.958190918" y="100" type="line"/>
			<point x="1131.9557495117" y="135" type="line"/>
			<point x="986.4149780273" y="540" type="line"/>
			<point x="765.3532104492" y="1115.8991699219" type="line"/>
			<point x="717.3825073242" y="1253.7875976562" type="line"/>
			<point x="707.3825073242" y="1253.7875976562" type="line"/>
			<point x="659.4118041992" y="1115.8991699219" type="line"/>
			<point x="440.301940918" y="502.4283447266" type="line"/>
			<point x="298.56640625" y="135" type="line"/>
			<point x="469.5639648438" y="100" type="line"/>
			<point x="467.5639648438" y="0" type="line"/>
		</contour>
		<contour>
			<point x="694.9652099609" y="612" type="line"/>
			<point x="1049.6373901367" y="602" type="line"/>
			<point x="1093.850769043" y="463" type="line"/>
			<point x="690.9652099609" y="464" type="line"/>
		</contour>
		<contour>
			<point x="331.1331176758" y="463" type="line"/>
			<point x="368.4678344727" y="601" type="line"/>
			<point x="694.9652099609" y="612" type="line"/>
			<point x="690.9652099609" y="464" type="line"/>
		</contour>
	</outline>
	<anchor name="bottom" x="735" y="0"/>
	<anchor name="ogonek" x="1318" y="0"/>
	<anchor name="tonos" x="492" y="1500"/>
	<anchor name="top" x="753" y="1500"/>
</glyph>
<glyph name="B" format="2">
	<unicode hex="0042"/>
	<advance width="1266"/>
	<outline>
		<contour>
			<point x="82.001953125" y="0" type="line"/>
			<point x="82.001953125" y="100" type="line"/>
			<point x="289.9995117188" y="135" type="line"/>
			<point x="291.9995117188" y="754" type="line"/>
			<point x="289.9995117188" y="1352" type="line"/>
			<point x="82.001953125" y="1386" type="line"/>
			<point x="82.001953125" y="1500" type="line"/>
			<point x="688.5368652344" y="1500" type="line" smooth="yes"/>
			<point x="892.2576904297" y="1500"/>
			<point x="1120.7622680664" y="1315"/>
			<point x="1120.7622680664" y="1172" type="qcurve" smooth="yes"/>
			<point x="1120.7622680664" y="1037"/>
			<point x="990.1997070312" y="854"/>
			<point x="862" y="831" type="qcurve"/>
			<point x="862" y="821" type="line"/>
			<point x="1010.2933959961" y="794"/>
			<point x="1205.5767211914" y="604"/>
			<point x="1205.5767211914" y="433" type="qcurve" smooth="yes"/>
			<point x="1205.5767211914" y="246"/>
			<point x="923.5055541992" y="0"/>
			<point x="703.5632324219" y="0" type="qcurve" smooth="yes"/>
		</contour>
		<contour>
			<point x="463.998046875" y="135" type="line"/>
			<point x="489.998046875" y="115" type="line"/>
			<point x="659.7667236328" y="115" type="line" smooth="yes"/>
			<point x="813.3819580078" y="115"/>
			<point x="1010.5327148438" y="264.5708007812"/>
			<point x="1010.5327148438" y="440" type="qcurve" smooth="yes"/>
			<point x="1010.5327148438" y="589.0004882812"/>
			<point x="841.2419433594" y="738"/>
			<point x="715.8874511719" y="738" type="qcurve" smooth="yes"/>
			<point x="476.998046875" y="738" type="line"/>
			<point x="463.998046875" y="724" type="line"/>
		</contour>
		<contour>
			<point x="462.998046875" y="866" type="line"/>
			<point x="474.998046875" y="852" type="line"/>
			<point x="646.7783203125" y="852" type="line" smooth="yes"/>
			<point x="771.7875976562" y="852"/>
			<point x="922.7182617188" y="986.3056640625"/>
			<point x="922.7182617188" y="1129" type="qcurve" smooth="yes"/>
			<point x="922.7182617188" y="1260.4086914062"/>
			<point x="766.9973144531" y="1370"/>
			<point x="662.1193847656" y="1370" type="qcurve" smooth="yes"/>
			<point x="493.998046875" y="1370" type="line"/>
			<point x="466.998046875" y="1351" type="line"/>
		</contour>
	</outline>
	<anchor name="bottom" x="614" y="0"/>
	<anchor name="top" x="614" y="1500"/>
</glyph>
<glyph name="C" format="2">
	<unicode hex="0043"/>
	<advance width="1471"/>
	<outline>
		<contour>
			<point x="83.9965820312" y="722" type="qcurve" smooth="yes"/>
			<point x="83.9965820312" y="1080.8181152344"/>
			<point x="497.4197387695" y="1520"/>
			<point x="834.4055175781" y="1520" type="qcurve" smooth="yes"/>
			<point x="1032.3112792969" y="1520"/>
			<point x="1147.9353637695" y="1435"/>
			<point x="1187.8525390625" y="1379" type="qcurve"/>
			<point x="1250.8525390625" y="1500" type="line"/>
			<point x="1344.5155029297" y="1500" type="line"/>
			<point x="1344.5155029297" y="1031" type="line"/>
			<point x="1242.8525390625" y="1031" type="line"/>
			<point x="1212.8525390625" y="1128" type="line" smooth="yes"/>
			<point x="1172.8525390625" y="1258"/>
			<point x="976.6516723633" y="1392"/>
			<point x="839.1482543945" y="1392" type="qcurve" smooth="yes"/>
			<point x="599.4016723633" y="1392"/>
			<point x="264.55859375" y="1071.4091796875"/>
			<point x="267.55859375" y="720" type="qcurve" smooth="yes"/>
			<point x="269.55859375" y="431.6928710938"/>
			<point x="558.09375" y="112"/>
			<point x="836.3525390625" y="112" type="qcurve" smooth="yes"/>
			<point x="1071.5288085938" y="112"/>
			<point x="1317.6962890625" y="278"/>
			<point x="1357.0189208984" y="374" type="qcurve"/>
			<point x="1441.0189208984" y="274" type="line"/>
			<point x="1394.2624511719" y="172"/>
			<point x="1130.7331542969" y="-30"/>
			<point x="830.9038085938" y="-30" type="qcurve" smooth="yes"/>
			<point x="480.4105224609" y="-30"/>
			<point x="83.9965820312" y="371.0090942383"/>
		</contour>
	</outline>
	<anchor name="bottom" x="836" y="0"/>
	<anchor name="top" x="836" y="1500"/>
</glyph>
<glyph name="G" format="2">
	<unicode hex="0047"/>
	<advance width="1524"/>
	<outline>
		<contour>
			<point x="83.9965820312" y="744" type="qcurve" smooth="yes"/>
			<point x="83.9965820312" y="1068"/>
			<point x="521.7352905273" y="1520"/>
			<point x="862.3279418945" y="1520" type="qcurve" smooth="yes"/>
			<point x="994.5443725586" y="1520"/>
			<point x="1170.3305053711" y="1458"/>
			<point x="1199.0289916992" y="1412" type="qcurve"/>
			<point x="1242.0289916992" y="1500" type="line"/>
			<point x="1334.3583374023" y="1500" type="line"/>
			<point x="1334.3583374023" y="1031" type="line"/>
			<point x="1230.1614990234" y="1031" type="line"/>
			<point x="1173.1614990234" y="1184" type="line" smooth="yes"/>
			<point x="1138.1614990234" y="1277"/>
			<point x="1065.6373291016" y="1392"/>
			<point x="851.4362182617" y="1392" type="qcurve" smooth="yes"/>
			<point x="598.8341674805" y="1392"/>
			<point x="266.6495361328" y="1063.8374023438"/>
			<point x="266.6495361328" y="768" type="qcurve" smooth="yes"/>
			<point x="266.6495361328" y="433.6518554688"/>
			<point x="617.7486572266" y="101"/>
			<point x="845.5758056641" y="101" type="qcurve" smooth="yes"/>
			<point x="1088.0759887695" y="101"/>
			<point x="1280.0277099609" y="214"/>
			<point x="1260.9758300781" y="281" type="qcurve"/>
			<point x="1260.9758300781" y="543" type="line"/>
			<point x="1002.9770507812" y="578" type="line"/>
			<point x="1002.9770507812" y="678" type="line"/>
			<point x="1590.0810546875" y="678" type="line"/>
			<point x="1590.0810546875" y="578" type="line"/>
			<point x="1447.0834960938" y="543" type="line"/>
			<point x="1447.0834960938" y="254" type="line"/>
			<point x="1391.6419067383" y="149"/>
			<point x="1077.0728759766" y="-27"/>
			<point x="844.2467041016" y="-30" type="qcurve" smooth="yes"/>
			<point x="550.8546142578" y="-35"/>
			<point x="83.9965820312" y="366"/>
		</contour>
	</outline>
	<anchor name="bottom" x="872" y="0"/>
	<anchor name="top" x="836" y="1500"/>
</glyph>
<glyph name="H" format="2">
	<unicode hex="0048"/>
	<advance width="1740"/>
	<outline>
		<contour>
			<point x="82.001953125" y="0" type="line"/>
			<point x="82.001953125" y="100" type="line"/>
			<point x="289.9995117188" y="135" type="line"/>
			<point x="291.9995117188" y="754" type="line"/>
			<point x="289.9995117188" y="1352" type="line"/>
			<point x="82.001953125" y="1386" type="line"/>
			<point x="82.001953125" y="1500" type="line"/>
			<point x="674.9865112305" y="1500" type="line"/>
			<point x="674.9865112305" y="1386" type="line"/>
			<point x="469.9889526367" y="1352" type="line"/>
			<point x="467.9889526367" y="754" type="line"/>
			<point x="469.9889526367" y="135" type="line"/>
			<point x="674.9865112305" y="100" type="line"/>
			<point x="674.9865112305" y="0" type="line"/>
		</contour>
		<contour>
			<point x="375.9889526367" y="715" type="line"/>
			<point x="375.9889526367" y="847" type="line"/>
			<point x="876.8341674805" y="839" type="line"/>
			<point x="1352.977722168" y="847" type="line"/>
			<point x="1352.977722168" y="715" type="line"/>
			<point x="876.8341674805" y="715" type="line"/>
		</contour>
		<contour>
			<point x="1064.9801635742" y="0" type="line"/>
			<point x="1064.9801635742" y="100" type="line"/>
			<point x="1269.977722168" y="135" type="line"/>
			<point x="1271.977722168" y="754" type="line"/>
			<point x="1269.977722168" y="1352" type="line"/>
			<point x="1064.9801635742" y="1386" type="line"/>
			<point x="1064.9801635742" y="1500" type="line"/>
			<point x="1657.9647216797" y="1500" type="line"/>
			<point x="1657.9647216797" y="1386" type="line"/>
			<point x="1449.9671630859" y="1352" type="line"/>
			<point x="1447.9671630859" y="754" type="line"/>
			<point x="1449.9671630859" y="135" type="line"/>
			<point x="1657.9647216797" y="100" type="line"/>
			<point x="1657.9647216797" y="0" type="line"/>
		</contour>
	</outline>
	<anchor name="bottom" x="870" y="0"/>
	<anchor name="center" x="870" y="1079"/>
	<anchor name="top" x="870" y="1500"/>
	<anchor name="tonos" x="0" y="1500"/>
	<anchor name="cy_descender" x="1658" y="100"/>
</glyph>
<glyph name="I" format="2">
	<unicode hex="0049"/>
	<advance width="780"/>
	<outline>
		<contour>
			<point x="92.001953125" y="0" type="line"/>
			<point x="92.001953125" y="100" type="line"/>
			<point x="299.9995117188" y="135" type="line"/>
			<point x="301.9995117188" y="754" type="line"/>
			<point x="299.9995117188" y="1352" type="line"/>
			<point x="92.001953125" y="1386" type="line"/>
			<point x="92.001953125" y="1500" type="line"/>
			<point x="687.9865112305" y="1500" type="line"/>
			<point x="687.9865112305" y="1386" type="line"/>
			<point x="479.9889526367" y="1352" type="line"/>
			<point x="477.9889526367" y="754" type="line"/>
			<point x="479.9889526367" y="135" type="line"/>
			<point x="687.9865112305" y="100" type="line"/>
			<point x="687.9865112305" y="0" type="line"/>
		</contour>
	</outline>
	<anchor name="bottom" x="390" y="0"/>
	<anchor name="ogonek" x="526" y="0"/>
	<anchor name="top" x="390" y="1500"/>
	<anchor name="tonos" x="0" y="1500"/>
	<anchor name="yu_dash" x="380" y="755"/>
	<anchor name="_Yeru_I" x="82" y="0"/>
	<anchor name="liga" x="780" y="0"/>
</glyph>
<glyph name="J" format="2">
	<unicode hex="004A"/>
	<advance width="738"/>
	<outline>
		<contour>
			<point x="15.2131347656" y="-206.001953125" type="qcurve"/>
			<point x="15.2131347656" y="-81.001953125" type="line"/>
			<point x="37.9368896484" y="-82.001953125"/>
			<point x="135.1081542969" y="-79.001953125"/>
			<point x="165.268371582" y="-75.001953125" type="qcurve" smooth="yes"/>
			<point x="215.0805053711" y="-67.8527832031"/>
			<point x="286.6661376953" y="15.998046875"/>
			<point x="286.6661376953" y="109.998046875" type="qcurve" smooth="yes"/>
			<point x="284.6661376953" y="834" type="line"/>
			<point x="282.6661376953" y="1352" type="line"/>
			<point x="74.6685791016" y="1386" type="line"/>
			<point x="74.6685791016" y="1500" type="line"/>
			<point x="670.7258911133" y="1500" type="line"/>
			<point x="670" y="1384" type="line"/>
			<point x="480" y="1350" type="line"/>
			<point x="460.7283325195" y="834" type="line"/>
			<point x="472.7283325195" y="186.998046875" type="line" smooth="yes"/>
			<point x="476.9683227539" y="-31.001953125"/>
			<point x="302.9868164062" y="-202.001953125"/>
			<point x="176.1644897461" y="-209.001953125" type="qcurve" smooth="yes"/>
			<point x="131.2515869141" y="-212.001953125"/>
			<point x="30.9368896484" y="-208.001953125"/>
		</contour>
	</outline>
	<anchor name="bottom" x="376" y="-208"/>
	<anchor name="top" x="376" y="1500"/>
	<anchor name="_liga" x="0" y="0"/>
</glyph>
<glyph name="L" format="2">
	<unicode hex="004C"/>
	<advance width="1258"/>
	<outline>
		<contour>
			<point x="82.001953125" y="0" type="line"/>
			<point x="82.001953125" y="100" type="line"/>
			<point x="289.9995117188" y="134" type="line"/>
			<point x="291.9995117188" y="754" type="line"/>
			<point x="289.9995117188" y="1352" type="line"/>
			<point x="82.001953125" y="1385" type="line"/>
			<point x="82.001953125" y="1500" type="line"/>
			<point x="680.9865112305" y="1500" type="line"/>
			<point x="680.9865112305" y="1386" type="line"/>
			<point x="469.9889526367" y="1352" type="line"/>
			<point x="467.9889526367" y="754" type="line"/>
			<point x="469.9889526367" y="139" type="line"/>
			<point x="499.9889526367" y="115" type="line"/>
			<point x="1053.0111694336" y="115" type="line"/>
			<point x="1139.0111694336" y="418" type="line"/>
			<point x="1252.6072387695" y="418" type="line"/>
			<point x="1201.6072387695" y="0" type="line"/>
		</contour>
	</outline>
	<anchor name="bottom" x="705" y="0"/>
	<anchor name="centerright" x="928" y="750"/>
	<anchor name="top" x="632" y="1500"/>
	<anchor name="topright" x="784" y="1001"/>
	<anchor name="center" x="378" y="750"/>
	<anchor name="liga" x="1264" y="0"/>
</glyph>
<glyph name="M" format="2">
	<unicode hex="004D"/>
	<advance width="2131"/>
	<outline>
		<contour>
			<point x="82.001953125" y="0" type="line"/>
			<point x="82.001953125" y="100" type="line"/>
			<point x="290.9995117188" y="135" type="line"/>
			<point x="292.9995117188" y="754" type="line"/>
			<point x="290.9995117188" y="1352" type="line"/>
			<point x="82.001953125" y="1386" type="line"/>
			<point x="82.001953125" y="1500" type="line"/>
			<point x="568.1521606445" y="1500" type="line"/>
			<point x="865.862121582" y="777.626953125" type="line"/>
			<point x="1004" y="370" type="line"/>
			<point x="1046" y="256" type="line"/>
			<point x="1056" y="256" type="line"/>
			<point x="1098" y="370" type="line"/>
			<point x="1286.7839355469" y="806.7573242188" type="line"/>
			<point x="1571.9721679688" y="1500" type="line"/>
			<point x="2049.4378662109" y="1500" type="line"/>
			<point x="2049.4378662109" y="1386" type="line"/>
			<point x="1841.4403076172" y="1352" type="line"/>
			<point x="1839.4403076172" y="754" type="line"/>
			<point x="1841.4403076172" y="135" type="line"/>
			<point x="2049.4378662109" y="100" type="line"/>
			<point x="2049.4378662109" y="0" type="line"/>
			<point x="1448.3350830078" y="0" type="line"/>
			<point x="1448.3350830078" y="100" type="line"/>
			<point x="1660.3326416016" y="135" type="line"/>
			<point x="1662.3326416016" y="754" type="line"/>
			<point x="1646" y="1210" type="line"/>
			<point x="1650" y="1329" type="line"/>
			<point x="1640" y="1331" type="line"/>
			<point x="1601" y="1224" type="line"/>
			<point x="1411.7937011719" y="763.1506347656" type="line"/>
			<point x="1096.5540161133" y="-8" type="line"/>
			<point x="976.3087158203" y="-8" type="line"/>
			<point x="705.0293579102" y="705.3405151367" type="line"/>
			<point x="458" y="1229" type="line"/>
			<point x="418" y="1336" type="line"/>
			<point x="408" y="1334" type="line"/>
			<point x="413" y="1215" type="line"/>
			<point x="433.9995117188" y="754" type="line"/>
			<point x="435.9995117188" y="135" type="line"/>
			<point x="627.9970703125" y="100" type="line"/>
			<point x="627.9970703125" y="0" type="line"/>
		</contour>
	</outline>
	<anchor name="bottom" x="1025" y="0"/>
	<anchor name="top" x="1058" y="1500"/>
</glyph>
<glyph name="N" format="2">
	<unicode hex="004E"/>
	<advance width="1632"/>
	<outline>
		<contour>
			<point x="82.001953125" y="0" type="line"/>
			<point x="82.001953125" y="100" type="line"/>
			<point x="288.9995117188" y="135" type="line"/>
			<point x="290.9995117188" y="754" type="line"/>
			<point x="288.9995117188" y="1352" type="line"/>
			<point x="82.001953125" y="1386" type="line"/>
			<point x="82.001953125" y="1500" type="line"/>
			<point x="527.811706543" y="1500" type="line"/>
			<point x="916.3482666016" y="833.7643432617" type="line"/>
			<point x="1148" y="412" type="line"/>
			<point x="1206" y="310" type="line"/>
			<point x="1215" y="313" type="line"/>
			<point x="1211" y="434" type="line"/>
			<point x="1230.0266723633" y="753.4543457031" type="line"/>
			<point x="1228.0266723633" y="1352" type="line"/>
			<point x="1003.0291137695" y="1386" type="line"/>
			<point x="1003.0291137695" y="1500" type="line"/>
			<point x="1580.024230957" y="1500" type="line"/>
			<point x="1580.024230957" y="1386" type="line"/>
			<point x="1373.0266723633" y="1352" type="line"/>
			<point x="1371.0266723633" y="753.4543457031" type="line"/>
			<point x="1367.0266723633" y="0" type="line"/>
			<point x="1219.9279174805" y="0" type="line"/>
			<point x="781.8537597656" y="745.0565795898" type="line"/>
			<point x="472" y="1219" type="line"/>
			<point x="414" y="1321" type="line"/>
			<point x="405" y="1318" type="line"/>
			<point x="410" y="1198" type="line"/>
			<point x="431.9995117188" y="754.9094238281" type="line"/>
			<point x="433.9995117188" y="135" type="line"/>
			<point x="611.9970703125" y="100" type="line"/>
			<point x="611.9970703125" y="0" type="line"/>
		</contour>
	</outline>
	<anchor name="bottom" x="800" y="0"/>
	<anchor name="top" x="800" y="1500"/>
	<anchor name="engtail" x="1324" y="0"/>
	<anchor name="liga" x="1600" y="0"/>
</glyph>
<glyph name="O" format="2">
	<unicode hex="004F"/>
	<advance width="1676"/>
	<outline>
		<contour>
			<point x="79.9965820312" y="737" type="qcurve" smooth="yes"/>
			<point x="79.9965820312" y="1068"/>
			<point x="500.8080444336" y="1520"/>
			<point x="838.2249755859" y="1520" type="qcurve" smooth="yes"/>
			<point x="1175.5375366211" y="1520"/>
			<point x="1596.1123046875" y="1097"/>
			<point x="1596.1123046875" y="752" type="qcurve" smooth="yes"/>
			<point x="1596.1123046875" y="423"/>
			<point x="1158.8256225586" y="-31"/>
			<point x="843.2249755859" y="-31" type="qcurve" smooth="yes"/>
			<point x="519.8603515625" y="-31"/>
			<point x="79.9965820312" y="386"/>
		</contour>
		<contour>
			<point x="273.55859375" y="771" type="qcurve" smooth="yes"/>
			<point x="273.55859375" y="443.7133789062"/>
			<point x="599.3602294922" y="101"/>
			<point x="838.2249755859" y="101" type="qcurve" smooth="yes"/>
			<point x="1120.3524169922" y="101"/>
			<point x="1395.5502929688" y="425.5908203125"/>
			<point x="1395.5502929688" y="745" type="qcurve" smooth="yes"/>
			<point x="1395.5502929688" y="1029.2866210938"/>
			<point x="1100.3636474609" y="1380"/>
			<point x="838.2249755859" y="1380" type="qcurve" smooth="yes"/>
			<point x="566.2288818359" y="1380"/>
			<point x="273.55859375" y="1052.0009765625"/>
		</contour>
	</outline>
	<anchor name="bottom" x="832" y="0"/>
	<anchor name="center" x="832" y="750"/>
	<anchor name="ogonek" x="1064" y="0"/>
	<anchor name="top" x="832" y="1500"/>
	<anchor name="topright" x="1028" y="1500"/>
	<anchor name="tonos" x="140" y="1500"/>
	<anchor name="_yu_dash" x="169" y="755"/>
</glyph>
<glyph name="Q" format="2">
	<unicode hex="0051"/>
	<advance width="1676"/>
	<outline>
		<contour>
			<point x="79.9965820312" y="737" type="qcurve" smooth="yes"/>
			<point x="79.9965820312" y="1068"/>
			<point x="512.9776611328" y="1520"/>
			<point x="834.8723144531" y="1520" type="qcurve" smooth="yes"/>
			<point x="1154.9372558594" y="1520"/>
			<point x="1596.1123046875" y="1097"/>
			<point x="1596.1123046875" y="752" type="qcurve" smooth="yes"/>
			<point x="1596.1123046875" y="423"/>
			<point x="1137.8663330078" y="-31"/>
			<point x="833.0760498047" y="-31" type="qcurve" smooth="yes"/>
			<point x="514.6873168945" y="-31"/>
			<point x="79.9965820312" y="396"/>
		</contour>
		<contour>
			<point x="273.55859375" y="771" type="qcurve" smooth="yes"/>
			<point x="273.55859375" y="468.4072265625"/>
			<point x="578.3309326172" y="101"/>
			<point x="828.1488037109" y="101" type="qcurve" smooth="yes"/>
			<point x="1101.1092529297" y="101"/>
			<point x="1395.5502929688" y="426.1010742188"/>
			<point x="1395.5502929688" y="745" type="qcurve" smooth="yes"/>
			<point x="1395.5502929688" y="1029.0825195312"/>
			<point x="1087.3806152344" y="1380"/>
			<point x="834.8723144531" y="1380" type="qcurve" smooth="yes"/>
			<point x="560.2570800781" y="1380"/>
			<point x="273.55859375" y="1062.2866210938"/>
		</contour>
		<contour>
			<point x="573" y="-39" type="qcurve"/>
			<point x="1293.080078125" y="-282.7180175781" type="line"/>
			<point x="1352.1638183594" y="-282.7180175781"/>
			<point x="1450.5922851562" y="-186.7366333008"/>
			<point x="1480.5111083984" y="-132.7366333008" type="qcurve"/>
			<point x="1580.5111083984" y="-194.7366333008" type="line"/>
			<point x="1513.8405761719" y="-288.6786499023"/>
			<point x="1369.8895874023" y="-427.8905029297"/>
			<point x="1234.8490600586" y="-427.8905029297" type="qcurve"/>
			<point x="539.6681518555" y="-191.9221191406" type="line"/>
			<point x="459.4866333008" y="-191.9221191406"/>
			<point x="362.5095214844" y="-254.6631469727"/>
			<point x="307.6254882812" y="-306.4357910156" type="qcurve"/>
			<point x="236.6254882812" y="-232.4357910156" type="line"/>
			<point x="299" y="-132"/>
			<point x="476" y="-39"/>
		</contour>
		<contour>
			<point x="518" y="-96" type="line"/>
			<point x="692.3756713867" y="352" type="line"/>
			<point x="819.3756713867" y="285" type="line"/>
			<point x="634" y="-133" type="line"/>
		</contour>
	</outline>
	<anchor name="bottom" x="832" y="0"/>
	<anchor name="top" x="823" y="1502"/>
</glyph>
<glyph name="R" format="2">
	<unicode hex="0052"/>
	<advance width="1349"/>
	<outline>
		<contour>
			<point x="82.001953125" y="0" type="line"/>
			<point x="82.001953125" y="100" type="line"/>
			<point x="289.9995117188" y="136" type="line"/>
			<point x="291.9995117188" y="794.1818847656" type="line"/>
			<point x="289.9995117188" y="1352" type="line"/>
			<point x="82.001953125" y="1386" type="line"/>
			<point x="82.001953125" y="1500" type="line"/>
			<point x="735.4370727539" y="1500" type="line" smooth="yes"/>
			<point x="928.9903564453" y="1500"/>
			<point x="1141.9003295898" y="1288"/>
			<point x="1141.9003295898" y="1119" type="qcurve" smooth="yes"/>
			<point x="1141.9003295898" y="936"/>
			<point x="878.8659667969" y="696"/>
			<point x="740.6380004883" y="696" type="qcurve" smooth="yes"/>
			<point x="700.8458251953" y="696"/>
			<point x="410.2345581055" y="705"/>
			<point x="378.0806274414" y="710" type="qcurve"/>
			<point x="378.0806274414" y="815" type="line"/>
			<point x="657.6253051758" y="815" type="line" smooth="yes"/>
			<point x="778.2669067383" y="815"/>
			<point x="948.9199829102" y="981.2241210938"/>
			<point x="948.9199829102" y="1117" type="qcurve" smooth="yes"/>
			<point x="948.9199829102" y="1236.3676757812"/>
			<point x="808.8656616211" y="1370"/>
			<point x="703.1171264648" y="1370" type="qcurve" smooth="yes"/>
			<point x="493.9889526367" y="1370" type="line"/>
			<point x="466.9889526367" y="1351" type="line"/>
			<point x="461.9889526367" y="764" type="line"/>
			<point x="463.9889526367" y="136" type="line"/>
			<point x="681.9865112305" y="100" type="line"/>
			<point x="681.9865112305" y="0" type="line"/>
		</contour>
		<contour>
			<point x="614" y="788" type="line"/>
			<point x="802" y="805" type="line"/>
			<point x="1143.4610595703" y="315" type="line" smooth="yes"/>
			<point x="1224" y="173"/>
			<point x="1341.8603515625" y="101"/>
			<point x="1420.4586181641" y="100" type="qcurve"/>
			<point x="1420.4586181641" y="0" type="line"/>
			<point x="1168.8920288086" y="0" type="line"/>
			<point x="1139.8920288086" y="20" type="line"/>
		</contour>
	</outline>
	<anchor name="bottom" x="803" y="0"/>
	<anchor name="top" x="630" y="1500"/>
</glyph>
<glyph name="T" format="2">
	<unicode hex="0054"/>
	<advance width="1286"/>
	<outline>
		<contour>
			<point x="40.0006103516" y="1052" type="line"/>
			<point x="40.0006103516" y="1500" type="line"/>
			<point x="1247.10546875" y="1500" type="line"/>
			<point x="1247.10546875" y="1052" type="line"/>
			<point x="1137.1097412109" y="1052" type="line"/>
			<point x="1102.1097412109" y="1382" type="line"/>
			<point x="750.9041137695" y="1382" type="line"/>
			<point x="731.9041137695" y="1362" type="line"/>
			<point x="729.9041137695" y="754" type="line"/>
			<point x="731.9041137695" y="136" type="line"/>
			<point x="950.9016723633" y="100" type="line"/>
			<point x="950.9016723633" y="0" type="line"/>
			<point x="336.9171142578" y="0" type="line"/>
			<point x="336.9171142578" y="100" type="line"/>
			<point x="555.9146728516" y="136" type="line"/>
			<point x="557.9146728516" y="754" type="line"/>
			<point x="555.9146728516" y="1362" type="line"/>
			<point x="540.9146728516" y="1382" type="line"/>
			<point x="184.9963378906" y="1382" type="line"/>
			<point x="149.9963378906" y="1052" type="line"/>
		</contour>
	</outline>
	<anchor name="bottom" x="644" y="0"/>
	<anchor name="center" x="644" y="750"/>
	<anchor name="top" x="644" y="1500"/>
	<anchor name="cy_descender" x="951" y="100"/>
</glyph>
<glyph name="U" format="2">
	<unicode hex="0055"/>
	<advance width="1624"/>
	<outline>
		<contour>
			<point x="59" y="1386" type="line"/>
			<point x="59" y="1500" type="line"/>
			<point x="650" y="1500" type="line"/>
			<point x="650" y="1386" type="line"/>
			<point x="448" y="1352" type="line"/>
			<point x="444" y="864" type="line"/>
			<point x="447" y="639" type="line" smooth="yes"/>
			<point x="450" y="390"/>
			<point x="668" y="114"/>
			<point x="837" y="114" type="qcurve" smooth="yes"/>
			<point x="1002" y="114"/>
			<point x="1253" y="369"/>
			<point x="1253" y="659" type="qcurve" smooth="yes"/>
			<point x="1253" y="864" type="line"/>
			<point x="1252" y="1352" type="line"/>
			<point x="1034" y="1386" type="line"/>
			<point x="1034" y="1500" type="line"/>
			<point x="1594" y="1500" type="line"/>
			<point x="1594" y="1386" type="line"/>
			<point x="1396" y="1352" type="line"/>
			<point x="1394" y="864" type="line"/>
			<point x="1398" y="658" type="line" smooth="yes"/>
			<point x="1405" y="308"/>
			<point x="1156" y="-31"/>
			<point x="830" y="-31" type="qcurve" smooth="yes"/>
			<point x="502" y="-31"/>
			<point x="264" y="313"/>
			<point x="267" y="646" type="qcurve" smooth="yes"/>
			<point x="269" y="864" type="line"/>
			<point x="267" y="1352" type="line"/>
		</contour>
	</outline>
	<anchor name="bottom" x="832" y="0"/>
	<anchor name="ogonek" x="1042" y="0"/>
	<anchor name="top" x="832" y="1500"/>
	<anchor name="topright" x="1590" y="1500"/>
</glyph>
<glyph name="W" format="2">
	<unicode hex="0057"/>
	<advance width="2170"/>
	<outline>
		<contour>
			<point x="660.2142333984" y="-8" type="line"/>
			<point x="356.7954711914" y="793.4106445312" type="line"/>
			<point x="155.99609375" y="1352" type="line"/>
			<point x="-32.0014648438" y="1386" type="line"/>
			<point x="-32.0014648438" y="1500" type="line"/>
			<point x="567.8284912109" y="1500" type="line"/>
			<point x="567.8284912109" y="1386" type="line"/>
			<point x="355.8309326172" y="1352" type="line"/>
			<point x="520.7391967773" y="841.910949707" type="line"/>
			<point x="677.3352050781" y="413.0460205078" type="line"/>
			<point x="734.1390991211" y="253.3918457031" type="line"/>
			<point x="744.1390991211" y="253.3918457031" type="line"/>
			<point x="797.5698852539" y="410.5502319336" type="line"/>
			<point x="888.5560913086" y="668.2617797852" type="line"/>
			<point x="1018.943359375" y="1042.1747436523" type="line"/>
			<point x="907.559387207" y="1352" type="line"/>
			<point x="718.5618286133" y="1386" type="line"/>
			<point x="718.5618286133" y="1500" type="line"/>
			<point x="1296.0086669922" y="1500" type="line"/>
			<point x="1296.0086669922" y="1386" type="line"/>
			<point x="1107.0111083984" y="1353" type="line"/>
			<point x="1286.1973876953" y="783.454284668" type="line"/>
			<point x="1399.4262084961" y="414.2984619141" type="line"/>
			<point x="1448.0989990234" y="257.4009399414" type="line"/>
			<point x="1459.0989990234" y="257.4009399414" type="line"/>
			<point x="1508.9217529297" y="410.5411376953" type="line"/>
			<point x="1643.3287353516" y="801.7475585938" type="line"/>
			<point x="1830.2428588867" y="1352" type="line"/>
			<point x="1617.245300293" y="1386" type="line"/>
			<point x="1617.245300293" y="1500" type="line"/>
			<point x="2204.2208862305" y="1500" type="line"/>
			<point x="2204.2208862305" y="1386" type="line"/>
			<point x="1993.2233276367" y="1352" type="line"/>
			<point x="1775.7426757812" y="765.009765625" type="line"/>
			<point x="1489.8026123047" y="-8" type="line"/>
			<point x="1368.4152832031" y="-8" type="line"/>
			<point x="1146.4147338867" y="689.8679199219" type="line"/>
			<point x="1085.9755249023" y="864.5220947266" type="line"/>
			<point x="1075.9755249023" y="864.5220947266" type="line"/>
			<point x="970.4688720703" y="580.7283935547" type="line"/>
			<point x="775.5993652344" y="-8" type="line"/>
		</contour>
	</outline>
	<anchor name="bottom" x="1051" y="0"/>
	<anchor name="top" x="1051" y="1500"/>
</glyph>
<glyph name="X" format="2">
	<unicode hex="0058"/>
	<advance width="1405"/>
	<outline>
		<contour>
			<point x="-40.7783203125" y="0" type="line"/>
			<point x="-40.7783203125" y="100" type="line"/>
			<point x="140.2177734375" y="135" type="line"/>
			<point x="575" y="786" type="line"/>
			<point x="197.0218505859" y="1355" type="line"/>
			<point x="26.0255126953" y="1386" type="line"/>
			<point x="26.0255126953" y="1500" type="line"/>
			<point x="605.2877197266" y="1500" type="line"/>
			<point x="605.2877197266" y="1386" type="line"/>
			<point x="436.2928466797" y="1353" type="line"/>
			<point x="601" y="1043" type="line"/>
			<point x="673" y="929" type="line"/>
			<point x="683" y="929" type="line"/>
			<point x="751" y="1043" type="line"/>
			<point x="963.7945556641" y="1360" type="line"/>
			<point x="805.7994384766" y="1386" type="line"/>
			<point x="805.7994384766" y="1500" type="line"/>
			<point x="1349.7906494141" y="1500" type="line"/>
			<point x="1349.7906494141" y="1386" type="line"/>
			<point x="1164.7945556641" y="1355" type="line"/>
			<point x="753" y="818" type="line"/>
			<point x="1272.5518798828" y="135" type="line"/>
			<point x="1457.5482177734" y="100" type="line"/>
			<point x="1457.5482177734" y="0" type="line"/>
			<point x="845.3223876953" y="0" type="line"/>
			<point x="845.3223876953" y="100" type="line"/>
			<point x="1023.3172607422" y="135" type="line"/>
			<point x="727" y="562" type="line"/>
			<point x="655" y="676" type="line"/>
			<point x="645" y="676" type="line"/>
			<point x="577" y="562" type="line"/>
			<point x="346.2177734375" y="135" type="line"/>
			<point x="509.212890625" y="100" type="line"/>
			<point x="509.212890625" y="0" type="line"/>
		</contour>
	</outline>
	<anchor name="bottom" x="661" y="0"/>
	<anchor name="top" x="673" y="1500"/>
	<anchor name="cy_descender" x="1386" y="100"/>
	<anchor name="center" x="663" y="811"/>
</glyph>
<glyph name="a" format="2">
	<unicode hex="0061"/>
	<advance width="1105"/>
	<outline>
		<contour>
			<point x="76.4262695312" y="247.5322265625" type="qcurve" smooth="yes"/>
			<point x="76.4262695312" y="403.7983398438"/>
			<point x="416" y="583"/>
			<point x="780" y="630" type="qcurve"/>
			<point x="787.7950439453" y="533.7271728516" type="line"/>
			<point x="534.8383789062" y="495.4467773438"/>
			<point x="260.0966796875" y="370.8382568359"/>
			<point x="263.0966796875" y="256.4390869141" type="qcurve" smooth="yes"/>
			<point x="265.0966796875" y="167.9093017578"/>
			<point x="353.7466430664" y="105.2797851562"/>
			<point x="425.3961791992" y="105.2797851562" type="qcurve" smooth="yes"/>
			<point x="507.2420043945" y="105.2797851562"/>
			<point x="681.2506713867" y="200.2661132812"/>
			<point x="710.8958740234" y="251.42578125" type="qcurve"/>
			<point x="713.8958740234" y="621.0350341797" type="line" smooth="yes"/>
			<point x="714.8958740234" y="796.39453125"/>
			<point x="589.567199707" y="912.7360839844"/>
			<point x="497.8635253906" y="912.7360839844" type="qcurve" smooth="yes"/>
			<point x="407.3508300781" y="912.7360839844"/>
			<point x="347.8583374023" y="870.3903808594"/>
			<point x="319.0034179688" y="838.6784667969" type="qcurve"/>
			<point x="344.0754394531" y="819.4768066406"/>
			<point x="365.0610351562" y="781.6640625"/>
			<point x="366.1042480469" y="753.8369140625" type="qcurve" smooth="yes"/>
			<point x="367.9443969727" y="713.1970214844"/>
			<point x="304.9833374023" y="653.4851074219"/>
			<point x="253.487487793" y="653.4851074219" type="qcurve" smooth="yes"/>
			<point x="206.1649780273" y="653.4851074219"/>
			<point x="145.3657226562" y="718.240234375"/>
			<point x="145.3657226562" y="782.9521484375" type="qcurve" smooth="yes"/>
			<point x="145.3657226562" y="879.7504882812"/>
			<point x="346.796875" y="1029.1022949219"/>
			<point x="513.7944946289" y="1029.1022949219" type="qcurve" smooth="yes"/>
			<point x="684.8223876953" y="1029.1022949219"/>
			<point x="875.7164306641" y="857.3332519531"/>
			<point x="875.7164306641" y="662.8749389648" type="qcurve" smooth="yes"/>
			<point x="875.7164306641" y="114.99609375" type="line"/>
			<point x="1037.7164306641" y="79.99609375" type="line"/>
			<point x="1037.7164306641" y="0" type="line"/>
			<point x="801.7950439453" y="0" type="line"/>
			<point x="729.7950439453" y="60" type="line"/>
			<point x="710.7950439453" y="149.3326416016" type="line"/>
			<point x="668.3923339844" y="84.2716064453"/>
			<point x="474.9694824219" y="-16"/>
			<point x="357.1188964844" y="-16" type="qcurve" smooth="yes"/>
			<point x="252.7035522461" y="-16"/>
			<point x="76.4262695312" y="119.3060302734"/>
		</contour>
	</outline>
	<anchor name="bottom" x="548" y="0"/>
	<anchor name="ogonek" x="878" y="0"/>
	<anchor name="top" x="514" y="1000"/>
</glyph>
<glyph name="b" format="2">
	<unicode hex="0062"/>
	<advance width="1142"/>
	<outline>
		<contour>
			<point x="153.5484008789" y="0" type="line"/>
			<point x="158.5484008789" y="427" type="line"/>
			<point x="153.4475708008" y="1379.603515625" type="line"/>
			<point x="-12.5524291992" y="1409.603515625" type="line"/>
			<point x="-12.5524291992" y="1500" type="line"/>
			<point x="262.5274047852" y="1534" type="line"/>
			<point x="294.5274047852" y="1534" type="line"/>
			<point x="324.5274047852" y="1500" type="line"/>
			<point x="322.5274047852" y="849.7829589844" type="line"/>
			<point x="370.4672851562" y="926.9293212891"/>
			<point x="532.8764648438" y="1022.1022949219"/>
			<point x="652.90234375" y="1022.1022949219" type="qcurve" smooth="yes"/>
			<point x="841.3651123047" y="1022.1022949219"/>
			<point x="1076.9300537109" y="738.5567626953"/>
			<point x="1076.9300537109" y="527.1043701172" type="qcurve" smooth="yes"/>
			<point x="1076.9300537109" y="299.6120605469"/>
			<point x="815.0596313477" y="-26"/>
			<point x="619.4244384766" y="-26" type="qcurve" smooth="yes"/>
			<point x="516.6365966797" y="-26"/>
			<point x="362.1348266602" y="53.1197509766"/>
			<point x="318.5562133789" y="97.1995849609" type="qcurve"/>
			<point x="213.5562133789" y="0" type="line"/>
		</contour>
		<contour>
			<point x="316.5274047852" y="430.9180908203" type="line"/>
			<point x="318.5274047852" y="258.7608642578" type="line"/>
			<point x="348.707824707" y="193.6411132812"/>
			<point x="504.2768554688" y="90.4814453125"/>
			<point x="601.1895141602" y="90.4814453125" type="qcurve" smooth="yes"/>
			<point x="737.4937744141" y="90.4814453125"/>
			<point x="899.8585205078" y="328.0511474609"/>
			<point x="899.8585205078" y="509.0511474609" type="qcurve" smooth="yes"/>
			<point x="899.8585205078" y="675.0511474609"/>
			<point x="722.2032470703" y="899.7360839844"/>
			<point x="593.8989868164" y="899.7360839844" type="qcurve" smooth="yes"/>
			<point x="500.3150634766" y="899.7360839844"/>
			<point x="362.1148681641" y="791.5631103516"/>
			<point x="320.5274047852" y="718.4300537109" type="qcurve"/>
		</contour>
	</outline>
	<anchor name="bottom" x="571" y="0"/>
	<anchor name="top" x="571" y="1533"/>
</glyph>
<glyph name="c" format="2">
	<unicode hex="0063"/>
	<advance width="964"/>
	<outline>
		<contour>
			<point x="64.8042602539" y="485.900390625" type="qcurve" smooth="yes"/>
			<point x="64.8042602539" y="713.1748046875"/>
			<point x="316.7379760742" y="1028.9958496094"/>
			<point x="529.7485351562" y="1028.9958496094" type="qcurve" smooth="yes"/>
			<point x="625.0024414062" y="1028.9958496094"/>
			<point x="730.2998046875" y="965.9958496094"/>
			<point x="773.1707763672" y="929.9958496094" type="qcurve"/>
			<point x="795.8696289062" y="1007.9958496094" type="line"/>
			<point x="889.3883056641" y="1007.9958496094" type="line"/>
			<point x="889.3883056641" y="655.9958496094" type="line"/>
			<point x="800.5133056641" y="655.9958496094" type="line"/>
			<point x="783.5133056641" y="716.9958496094" type="line" smooth="yes"/>
			<point x="756.5133056641" y="812.9958496094"/>
			<point x="645.397277832" y="917.9958496094"/>
			<point x="542.407409668" y="917.9958496094" type="qcurve" smooth="yes"/>
			<point x="416.1031494141" y="917.9958496094"/>
			<point x="235.4807739258" y="705.9979248047"/>
			<point x="235.4807739258" y="504.9979248047" type="qcurve" smooth="yes"/>
			<point x="235.4807739258" y="311.9979248047"/>
			<point x="431.9128417969" y="86"/>
			<point x="586.2171020508" y="86" type="qcurve" smooth="yes"/>
			<point x="689.8961181641" y="86"/>
			<point x="855.6879882812" y="184"/>
			<point x="904.4558105469" y="240" type="qcurve"/>
			<point x="955.7914428711" y="160" type="line"/>
			<point x="904.6879882812" y="95"/>
			<point x="701.6252441406" y="-30"/>
			<point x="554.4843139648" y="-30" type="qcurve" smooth="yes"/>
			<point x="368.8048095703" y="-30"/>
			<point x="64.8042602539" y="246.9666748047"/>
		</contour>
	</outline>
	<anchor name="bottom" x="563" y="0"/>
	<anchor name="top" x="534" y="1000"/>
</glyph>
<glyph name="d" format="2">
	<unicode hex="0064"/>
	<advance width="1221"/>
	<outline>
		<contour>
			<point x="64.5921020508" y="478.9979248047" type="qcurve" smooth="yes"/>
			<point x="64.5921020508" y="723.2741699219"/>
			<point x="314.8922119141" y="1022.1022949219"/>
			<point x="533.7941894531" y="1022.1022949219" type="qcurve" smooth="yes"/>
			<point x="605.674621582" y="1022.1022949219"/>
			<point x="789.0685424805" y="977.0091552734"/>
			<point x="836.9545898438" y="940.9293212891" type="qcurve"/>
			<point x="833.2614135742" y="1380.00390625" type="line"/>
			<point x="674.2614135742" y="1410.00390625" type="line"/>
			<point x="674.2614135742" y="1500" type="line"/>
			<point x="946.9598999023" y="1534" type="line"/>
			<point x="979.3300170898" y="1534" type="line"/>
			<point x="1008.8690795898" y="1500" type="line"/>
			<point x="1003.8690795898" y="538" type="line"/>
			<point x="1012.1840209961" y="114.99609375" type="line"/>
			<point x="1181.1840209961" y="79.99609375" type="line"/>
			<point x="1181.1840209961" y="0" type="line"/>
			<point x="907.8568115234" y="0" type="line"/>
			<point x="865.5349731445" y="50" type="line"/>
			<point x="845.8912963867" y="149.3193359375" type="line"/>
			<point x="803.9194335938" y="86.1995849609"/>
			<point x="604.737121582" y="-19"/>
			<point x="486.8372192383" y="-19" type="qcurve" smooth="yes"/>
			<point x="311.0811767578" y="-19"/>
			<point x="64.5921020508" y="254.7725830078"/>
		</contour>
		<contour>
			<point x="236.2398071289" y="494.0511474609" type="qcurve" smooth="yes"/>
			<point x="236.2398071289" y="311.0511474609"/>
			<point x="403.4829711914" y="101.1357421875"/>
			<point x="538.7264404297" y="101.1357421875" type="qcurve" smooth="yes"/>
			<point x="655.8526000977" y="101.1357421875"/>
			<point x="812.9482421875" y="201.8981933594"/>
			<point x="841.8099975586" y="262.3060302734" type="qcurve"/>
			<point x="847.8099975586" y="525.0777587891" type="line"/>
			<point x="847.8099975586" y="796.8494873047" type="line"/>
			<point x="817.6771240234" y="852.2573242188"/>
			<point x="648.9578857422" y="919.9665527344"/>
			<point x="560.1486816406" y="919.9665527344" type="qcurve" smooth="yes"/>
			<point x="404.7836303711" y="919.9665527344"/>
			<point x="236.2398071289" y="669.0511474609"/>
		</contour>
	</outline>
	<anchor name="bottom" x="604" y="0"/>
	<anchor name="center" x="876" y="1202"/>
	<anchor name="top" x="604" y="1534"/>
	<anchor name="topright" x="961" y="1000"/>
	<anchor name="liga" x="1207" y="0"/>
</glyph>
<glyph name="e" format="2">
	<unicode hex="0065"/>
	<advance width="1023"/>
	<outline>
		<contour>
			<point x="62.8346557617" y="501.0754394531" type="qcurve" smooth="yes"/>
			<point x="62.8346557617" y="718.2297363281"/>
			<point x="348.9273071289" y="1031.9692382812"/>
			<point x="533.8960571289" y="1031.9692382812" type="qcurve" smooth="yes"/>
			<point x="714.1044921875" y="1031.9692382812"/>
			<point x="960.3926391602" y="794.5966796875"/>
			<point x="979.5974121094" y="589.1309814453" type="qcurve"/>
			<point x="979.6118164062" y="519.1309814453" type="line"/>
			<point x="166" y="528" type="line"/>
			<point x="166" y="624" type="line"/>
			<point x="799.1491699219" y="625.1309814453" type="line"/>
			<point x="779.4641113281" y="764.5700683594"/>
			<point x="623.3242797852" y="917.9692382812"/>
			<point x="526.262878418" y="917.9692382812" type="qcurve" smooth="yes"/>
			<point x="412.0194091797" y="917.9692382812"/>
			<point x="227.7128295898" y="700.9313964844"/>
			<point x="228.7128295898" y="520.9313964844" type="qcurve" smooth="yes"/>
			<point x="230.7128295898" y="319.9313964844"/>
			<point x="446.7678222656" y="91"/>
			<point x="596.0112915039" y="91" type="qcurve" smooth="yes"/>
			<point x="696.5102539062" y="91"/>
			<point x="835.1465454102" y="154"/>
			<point x="878.0508422852" y="208" type="qcurve"/>
			<point x="926.0364379883" y="128" type="line"/>
			<point x="879.0402832031" y="65"/>
			<point x="699.0423583984" y="-30"/>
			<point x="574.5878295898" y="-30" type="qcurve" smooth="yes"/>
			<point x="345.4138793945" y="-30"/>
			<point x="62.8346557617" y="249.8923339844"/>
		</contour>
	</outline>
	<anchor name="bottom" x="578" y="0"/>
	<anchor name="ogonek" x="744" y="0"/>
	<anchor name="top" x="539" y="1000"/>
</glyph>
<glyph name="g" format="2">
	<unicode hex="0067"/>
	<advance width="1135"/>
	<outline>
		<contour>
			<point x="73.3360595703" y="-263.5776367188" type="qcurve" smooth="yes"/>
			<point x="73.3360595703" y="-178.9744873047"/>
			<point x="182.3291625977" y="-52.6241455078"/>
			<point x="260.9052734375" y="-17.1309814453" type="qcurve"/>
			<point x="362.3890380859" y="-42.8444213867" type="line"/>
			<point x="303.3980102539" y="-85.8316650391"/>
			<point x="259.5128173828" y="-177.5701904297"/>
			<point x="259.5128173828" y="-236.3549804688" type="qcurve" smooth="yes"/>
			<point x="259.5128173828" y="-320.8703613281"/>
			<point x="442.904296875" y="-413"/>
			<point x="628.3994750977" y="-413" type="qcurve" smooth="yes"/>
			<point x="767.4273071289" y="-413"/>
			<point x="940.5530395508" y="-308.9245605469"/>
			<point x="940.5530395508" y="-232.5212402344" type="qcurve" smooth="yes"/>
			<point x="940.5530395508" y="-159.1577148438"/>
			<point x="823.9904174805" y="-110.5220336914"/>
			<point x="605.0395507812" y="-102.4152832031" type="qcurve" smooth="yes"/>
			<point x="414.6887207031" y="-94.3650512695"/>
			<point x="134.4407958984" y="-25.8396606445"/>
			<point x="134.4407958984" y="106.5931396484" type="qcurve" smooth="yes"/>
			<point x="134.4407958984" y="177.7370605469"/>
			<point x="286.4638671875" y="301.6318969727"/>
			<point x="360.5993652344" y="340.0552368164" type="qcurve"/>
			<point x="412.725769043" y="278.7580566406" type="line"/>
			<point x="350.2434692383" y="255.9845581055"/>
			<point x="284.8851318359" y="185.3283081055"/>
			<point x="284.8851318359" y="143.9738769531" type="qcurve" smooth="yes"/>
			<point x="284.8851318359" y="93.9012451172"/>
			<point x="406.1389770508" y="48.7512207031"/>
			<point x="639.9429931641" y="43.3664550781" type="qcurve" smooth="yes"/>
			<point x="911.5815429688" y="35.3109130859"/>
			<point x="1108.569152832" y="-69.0151367188"/>
			<point x="1108.5547485352" y="-189.0916748047" type="qcurve" smooth="yes"/>
			<point x="1108.5403442383" y="-330.1838378906"/>
			<point x="837.7362670898" y="-518"/>
			<point x="580.6498413086" y="-518" type="qcurve" smooth="yes"/>
			<point x="353.3178100586" y="-518"/>
			<point x="73.3360595703" y="-378.1728515625"/>
		</contour>
		<contour>
			<point x="147.9986572266" y="630.7962646484" type="qcurve" smooth="yes"/>
			<point x="147.9986572266" y="801.8760986328"/>
			<point x="379.4708251953" y="1023.9692382812"/>
			<point x="563.1770629883" y="1023.9692382812" type="qcurve" smooth="yes"/>
			<point x="743.9140625" y="1023.9692382812"/>
			<point x="969.7206420898" y="817.8760986328"/>
			<point x="969.7206420898" y="635.8095703125" type="qcurve" smooth="yes"/>
			<point x="969.7206420898" y="464.7297363281"/>
			<point x="736.1695556641" y="223.6232910156"/>
			<point x="569.2352905273" y="223.6232910156" type="qcurve" smooth="yes"/>
			<point x="382.3342895508" y="223.6232910156"/>
			<point x="147.9986572266" y="445.7297363281"/>
		</contour>
		<contour>
			<point x="318.4613037109" y="630.9293212891" type="qcurve" smooth="yes"/>
			<point x="318.4613037109" y="475.9293212891"/>
			<point x="438.4066772461" y="329.6232910156"/>
			<point x="564.6498413086" y="329.6232910156" type="qcurve" smooth="yes"/>
			<point x="667.8930053711" y="329.6232910156"/>
			<point x="799.2291870117" y="472.9293212891"/>
			<point x="799.2291870117" y="629.9293212891" type="qcurve" smooth="yes"/>
			<point x="799.2291870117" y="758.9293212891"/>
			<point x="680.235534668" y="915.9692382812"/>
			<point x="564.9923706055" y="915.9692382812" type="qcurve" smooth="yes"/>
			<point x="442.749206543" y="915.9692382812"/>
			<point x="318.4613037109" y="764.9293212891"/>
		</contour>
		<contour>
			<point x="648.0269775391" y="926.9692382812" type="line"/>
			<point x="627.0269775391" y="1001.9692382812" type="line"/>
			<point x="1112.7471923828" y="1001.9692382812" type="line"/>
			<point x="1112.7471923828" y="866.9692382812" type="line"/>
		</contour>
	</outline>
	<anchor name="bottom" x="524" y="-416"/>
	<anchor name="top" x="484" y="1000"/>
</glyph>
<glyph name="h" format="2">
	<unicode hex="0068"/>
	<advance width="1263"/>
	<outline>
		<contour>
			<point x="73.6257324219" y="0" type="line"/>
			<point x="73.6257324219" y="79.99609375" type="line"/>
			<point x="218.6257324219" y="114.99609375" type="line"/>
			<point x="220.6257324219" y="529.1156005859" type="line"/>
			<point x="218.6257324219" y="1380.00390625" type="line"/>
			<point x="73.6257324219" y="1410.00390625" type="line"/>
			<point x="73.6257324219" y="1500" type="line"/>
			<point x="323.6335449219" y="1534" type="line"/>
			<point x="355.6335449219" y="1534" type="line"/>
			<point x="385.6335449219" y="1500" type="line"/>
			<point x="385.6335449219" y="853.7059936523" type="line"/>
			<point x="441.9766845703" y="929.5443115234"/>
			<point x="625.610534668" y="1022.9958496094"/>
			<point x="726.4725341797" y="1022.9958496094" type="qcurve" smooth="yes"/>
			<point x="877.5289306641" y="1022.9958496094"/>
			<point x="1040.1955566406" y="878.5835571289"/>
			<point x="1040.1955566406" y="728.7746582031" type="qcurve" smooth="yes"/>
			<point x="1040.1955566406" y="669.335144043"/>
			<point x="1030.4338378906" y="563.2312011719"/>
			<point x="1030.4338378906" y="563.2312011719" type="qcurve"/>
			<point x="1038.4135131836" y="114.99609375" type="line"/>
			<point x="1217.4135131836" y="79.99609375" type="line"/>
			<point x="1217.4135131836" y="0" type="line"/>
			<point x="668.4057006836" y="0" type="line"/>
			<point x="668.4057006836" y="79.99609375" type="line"/>
			<point x="871.4057006836" y="114.99609375" type="line"/>
			<point x="872.448425293" y="529.1156005859" type="line"/>
			<point x="872.448425293" y="714.4013061523" type="line" smooth="yes"/>
			<point x="872.448425293" y="782.5936889648"/>
			<point x="764.0725708008" y="880.6955566406"/>
			<point x="676.9660644531" y="880.6955566406" type="qcurve" smooth="yes"/>
			<point x="599.7697753906" y="880.6955566406"/>
			<point x="437.8001098633" y="803.3709106445"/>
			<point x="385.6335449219" y="726.0811767578" type="qcurve"/>
			<point x="385.6335449219" y="529.1022949219" type="line"/>
			<point x="387.6335449219" y="114.99609375" type="line"/>
			<point x="533.1335449219" y="79.99609375" type="line"/>
			<point x="533.1335449219" y="0" type="line"/>
		</contour>
	</outline>
	<anchor name="bottom" x="629" y="0"/>
	<anchor name="center" x="347" y="1202"/>
	<anchor name="top" x="304" y="1534"/>
</glyph>
<glyph name="k" format="2">
	<unicode hex="006B"/>
	<advance width="1069"/>
	<outline>
		<contour>
			<point x="76.668762207" y="0" type="line"/>
			<point x="76.668762207" y="79.99609375" type="line"/>
			<point x="224.668762207" y="114.99609375" type="line"/>
			<point x="226.668762207" y="527" type="line"/>
			<point x="224.668762207" y="1380.00390625" type="line"/>
			<point x="64.668762207" y="1410.00390625" type="line"/>
			<point x="64.668762207" y="1500" type="line"/>
			<point x="329.5901489258" y="1534" type="line"/>
			<point x="361.5901489258" y="1534" type="line"/>
			<point x="391.5901489258" y="1500" type="line"/>
			<point x="391.5901489258" y="527" type="line"/>
			<point x="393.5901489258" y="114.99609375" type="line"/>
			<point x="541.5901489258" y="79.99609375" type="line"/>
			<point x="541.5901489258" y="0" type="line"/>
		</contour>
		<contour>
			<point x="303" y="376" type="line"/>
			<point x="303" y="490" type="line"/>
			<point x="743.2590942383" y="885.9731445312" type="line"/>
			<point x="646.2590942383" y="915.9731445312" type="line"/>
			<point x="646.2590942383" y="1001.9692382812" type="line"/>
			<point x="1058.9209594727" y="1001.9692382812" type="line"/>
			<point x="1058.9209594727" y="915.9731445312" type="line"/>
			<point x="900.9209594727" y="880.9731445312" type="line"/>
		</contour>
		<contour>
			<point x="494.1685180664" y="586.4444580078" type="line"/>
			<point x="605.8916625977" y="688.8883056641" type="line"/>
			<point x="1009.6314086914" y="114.99609375" type="line"/>
			<point x="1127.6314086914" y="79.99609375" type="line"/>
			<point x="1127.6314086914" y="0" type="line"/>
			<point x="818.4473266602" y="0" type="line"/>
			<point x="806.0547485352" y="79.248046875" type="line"/>
			<point x="817.0176391602" y="111.85546875" type="line"/>
		</contour>
	</outline>
	<anchor name="bottom" x="608" y="0"/>
	<anchor name="top" x="578" y="1534"/>
</glyph>
<glyph name="l" format="2">
	<unicode hex="006C"/>
	<advance width="586"/>
	<outline>
		<contour>
			<point x="78.9973144531" y="0" type="line"/>
			<point x="78.9973144531" y="79.99609375" type="line"/>
			<point x="230.9973144531" y="114.99609375" type="line"/>
			<point x="232.9973144531" y="527" type="line"/>
			<point x="230.9973144531" y="1380.00390625" type="line"/>
			<point x="54.9973144531" y="1410.00390625" type="line"/>
			<point x="54.9973144531" y="1500" type="line"/>
			<point x="335.0051269531" y="1534" type="line"/>
			<point x="367.0051269531" y="1534" type="line"/>
			<point x="395.0051269531" y="1502" type="line"/>
			<point x="393.0051269531" y="527" type="line"/>
			<point x="395.0051269531" y="114.99609375" type="line"/>
			<point x="543.0051269531" y="79.99609375" type="line"/>
			<point x="543.0051269531" y="0" type="line"/>
		</contour>
	</outline>
	<anchor name="bottom" x="316" y="0"/>
	<anchor name="center" x="316" y="750"/>
	<anchor name="top" x="316" y="1534"/>
	<anchor name="topright" x="367" y="1000"/>
	<anchor name="centerright" x="746" y="680"/>
	<anchor name="yu_dash" x="321" y="500"/>
	<anchor name="liga" x="632" y="0"/>
</glyph>
<glyph name="m" format="2">
	<unicode hex="006D"/>
	<advance width="1906"/>
	<outline>
		<contour>
			<point x="76.668762207" y="0" type="line"/>
			<point x="76.668762207" y="79.99609375" type="line"/>
			<point x="224.668762207" y="114.99609375" type="line"/>
			<point x="226.668762207" y="529.1156005859" type="line"/>
			<point x="224.668762207" y="847.9731445312" type="line"/>
			<point x="66.668762207" y="877.9731445312" type="line"/>
			<point x="66.668762207" y="969.9692382812" type="line"/>
			<point x="328.6621704102" y="1001.9692382812" type="line"/>
			<point x="368.6621704102" y="974.9692382812" type="line"/>
			<point x="393.6621704102" y="845.1147460938" type="line"/>
			<point x="456.8272094727" y="919.3667602539"/>
			<point x="641.8744506836" y="1022.9692382812"/>
			<point x="733.9799194336" y="1022.9692382812" type="qcurve" smooth="yes"/>
			<point x="850.4262695312" y="1022.9692382812"/>
			<point x="1023.0165405273" y="924.7599487305"/>
			<point x="1037.3770141602" y="836.5180664062" type="qcurve"/>
			<point x="1097.1195678711" y="912.7556152344"/>
			<point x="1289.7750854492" y="1022.9692382812"/>
			<point x="1390.5368041992" y="1022.9692382812" type="qcurve" smooth="yes"/>
			<point x="1541.1755371094" y="1022.9692382812"/>
			<point x="1704.9799194336" y="875.153137207"/>
			<point x="1704.9799194336" y="708.9351806641" type="qcurve" smooth="yes"/>
			<point x="1704.9799194336" y="656.9750976562"/>
			<point x="1700.0076293945" y="561.1022949219"/>
			<point x="1700.9943237305" y="529.1156005859" type="qcurve" smooth="yes"/>
			<point x="1700.9943237305" y="114.99609375" type="line"/>
			<point x="1898.9943237305" y="79.99609375" type="line"/>
			<point x="1898.9943237305" y="0" type="line"/>
			<point x="1366.0729370117" y="0" type="line"/>
			<point x="1366.0729370117" y="79.99609375" type="line"/>
			<point x="1534.0729370117" y="114.99609375" type="line"/>
			<point x="1538.0729370117" y="529.1156005859" type="line"/>
			<point x="1538.0729370117" y="698.9642333984" type="line" smooth="yes"/>
			<point x="1538.0729370117" y="782.9085083008"/>
			<point x="1421.6029663086" y="880.5537109375"/>
			<point x="1338.1930541992" y="880.5537109375" type="qcurve" smooth="yes"/>
			<point x="1249.3241577148" y="880.5537109375"/>
			<point x="1093.3692626953" y="778.682800293"/>
			<point x="1050.0745239258" y="716.123046875" type="qcurve"/>
			<point x="1049.0745239258" y="672.1629638672"/>
			<point x="1045.0889282227" y="561.0595703125"/>
			<point x="1046.0745239258" y="529.1156005859" type="qcurve" smooth="yes"/>
			<point x="1046.0745239258" y="114.99609375" type="line"/>
			<point x="1244.0745239258" y="79.99609375" type="line"/>
			<point x="1244.0745239258" y="0" type="line"/>
			<point x="711.1243286133" y="0" type="line"/>
			<point x="711.1243286133" y="79.99609375" type="line"/>
			<point x="879.1243286133" y="114.99609375" type="line"/>
			<point x="883.1243286133" y="529.1156005859" type="line"/>
			<point x="883.1243286133" y="698.9642333984" type="line" smooth="yes"/>
			<point x="883.1243286133" y="782.9085083008"/>
			<point x="763.6970825195" y="880.5537109375"/>
			<point x="678.8085327148" y="880.5537109375" type="qcurve" smooth="yes"/>
			<point x="598.3045043945" y="880.5537109375"/>
			<point x="425.3457641602" y="774.682800293"/>
			<point x="391.6621704102" y="711.123046875" type="qcurve"/>
			<point x="391.6621704102" y="529.1156005859" type="line"/>
			<point x="393.6621704102" y="114.99609375" type="line"/>
			<point x="541.6621704102" y="79.99609375" type="line"/>
			<point x="541.6621704102" y="0" type="line"/>
		</contour>
	</outline>
	<anchor name="bottom" x="958" y="0"/>
	<anchor name="top" x="958" y="1000"/>
</glyph>
<glyph name="n" format="2">
	<unicode hex="006E"/>
	<advance width="1225"/>
	<outline>
		<contour>
			<point x="76.668762207" y="0" type="line"/>
			<point x="76.668762207" y="79.99609375" type="line"/>
			<point x="224.668762207" y="114.99609375" type="line"/>
			<point x="226.668762207" y="529.1156005859" type="line"/>
			<point x="224.668762207" y="847.9731445312" type="line"/>
			<point x="66.668762207" y="877.9731445312" type="line"/>
			<point x="66.668762207" y="969.9692382812" type="line"/>
			<point x="328.791809082" y="1001.9692382812" type="line"/>
			<point x="368.791809082" y="974.9692382812" type="line"/>
			<point x="393.8206176758" y="849.184753418" type="line"/>
			<point x="448.1618652344" y="922.1655273438"/>
			<point x="637.0736694336" y="1022.9825439453"/>
			<point x="739.6879882812" y="1022.9825439453" type="qcurve" smooth="yes"/>
			<point x="896.4716796875" y="1022.9825439453"/>
			<point x="1052.153137207" y="871.0186157227"/>
			<point x="1052.153137207" y="736.4473266602" type="qcurve" smooth="yes"/>
			<point x="1052.153137207" y="654.9144897461"/>
			<point x="1046.694519043" y="561.1022949219"/>
			<point x="1046.6744995117" y="529.1156005859" type="qcurve" smooth="yes"/>
			<point x="1046.6744995117" y="114.99609375" type="line"/>
			<point x="1204.6744995117" y="79.99609375" type="line"/>
			<point x="1204.6744995117" y="0" type="line"/>
			<point x="711.6666870117" y="0" type="line"/>
			<point x="711.6666870117" y="79.99609375" type="line"/>
			<point x="879.6666870117" y="114.99609375" type="line"/>
			<point x="883.6666870117" y="529.1156005859" type="line"/>
			<point x="883.6666870117" y="689.9760742188" type="line" smooth="yes"/>
			<point x="883.6666870117" y="792.4033203125"/>
			<point x="784.9019775391" y="880.5814208984"/>
			<point x="688.9236450195" y="880.5814208984" type="qcurve" smooth="yes"/>
			<point x="598.3187866211" y="880.5814208984"/>
			<point x="434.0015258789" y="788.219909668"/>
			<point x="391.676574707" y="722.2405395508" type="qcurve"/>
			<point x="391.676574707" y="529.1156005859" type="line"/>
			<point x="393.676574707" y="114.99609375" type="line"/>
			<point x="541.676574707" y="79.99609375" type="line"/>
			<point x="541.676574707" y="0" type="line"/>
		</contour>
	</outline>
	<anchor name="bottom" x="632" y="0"/>
	<anchor name="top" x="632" y="1000"/>
	<anchor name="liga" x="1264" y="0"/>
</glyph>
<glyph name="o" format="2">
	<unicode hex="006F"/>
	<advance width="1149"/>
	<outline>
		<contour>
			<point x="63.8042602539" y="501.0511474609" type="qcurve" smooth="yes"/>
			<point x="63.8042602539" y="718.4370117188"/>
			<point x="357.9481811523" y="1025.6878051758"/>
			<point x="571.3989868164" y="1025.6878051758" type="qcurve" smooth="yes"/>
			<point x="787.54296875" y="1025.6878051758"/>
			<point x="1085.0801391602" y="738.4636230469"/>
			<point x="1085.0801391602" y="507.0511474609" type="qcurve" smooth="yes"/>
			<point x="1085.0801391602" y="290.6253662109"/>
			<point x="794.5285644531" y="-24.3563232422"/>
			<point x="579.3989868164" y="-24.3563232422" type="qcurve" smooth="yes"/>
			<point x="362.2619018555" y="-24.3563232422"/>
			<point x="63.8042602539" y="267.5987548828"/>
		</contour>
		<contour>
			<point x="234.3943481445" y="521.0511474609" type="qcurve" smooth="yes"/>
			<point x="236.3943481445" y="340.0511474609"/>
			<point x="426.4303588867" y="84.6436767578"/>
			<point x="569.7346191406" y="84.6436767578" type="qcurve" smooth="yes"/>
			<point x="730.0388793945" y="84.6436767578"/>
			<point x="908.4036254883" y="318.0511474609"/>
			<point x="908.4036254883" y="507.0511474609" type="qcurve" smooth="yes"/>
			<point x="908.4036254883" y="681.0511474609"/>
			<point x="717.0388793945" y="910.6878051758"/>
			<point x="572.7346191406" y="910.6878051758" type="qcurve" smooth="yes"/>
			<point x="409.4303588867" y="910.6878051758"/>
			<point x="233.3943481445" y="701.0511474609"/>
		</contour>
	</outline>
	<anchor name="bottom" x="584" y="0"/>
	<anchor name="center" x="584" y="500"/>
	<anchor name="ogonek" x="747" y="0"/>
	<anchor name="top" x="584" y="1000"/>
	<anchor name="topright" x="751" y="1000"/>
	<anchor name="GRKtop" x="584" y="1000"/>
	<anchor name="yu_dash" x="150" y="500"/>
</glyph>
<glyph name="q" format="2">
	<unicode hex="0071"/>
	<advance width="1183"/>
	<outline>
		<contour>
			<point x="67.7434692383" y="478.9979248047" type="qcurve" smooth="yes"/>
			<point x="67.7434692383" y="723.490234375"/>
			<point x="338.9414672852" y="1022.1022949219"/>
			<point x="579.9277954102" y="1022.1022949219" type="qcurve" smooth="yes"/>
			<point x="662.7732543945" y="1022.1022949219"/>
			<point x="808.8519287109" y="971.0102539062"/>
			<point x="855.3884887695" y="935.6927490234" type="qcurve"/>
			<point x="935.3884887695" y="1012.1022949219" type="line"/>
			<point x="1157.3242797852" y="977.1022949219" type="line"/>
			<point x="1157.3242797852" y="888.1262207031" type="line"/>
			<point x="998.3242797852" y="854.1262207031" type="line"/>
			<point x="990.3242797852" y="428.8914794922" type="line"/>
			<point x="992.3242797852" y="-369.00390625" type="line"/>
			<point x="1145.3242797852" y="-404.00390625" type="line"/>
			<point x="1145.3242797852" y="-480" type="line"/>
			<point x="642.3884887695" y="-480" type="line"/>
			<point x="642.3884887695" y="-404.00390625" type="line"/>
			<point x="827.3884887695" y="-369.00390625" type="line"/>
			<point x="832.3884887695" y="149.2794189453" type="line"/>
			<point x="813.0915527344" y="86.130859375"/>
			<point x="667.091003418" y="-19"/>
			<point x="496.2145385742" y="-19" type="qcurve" smooth="yes"/>
			<point x="299.2977905273" y="-19"/>
			<point x="67.7434692383" y="254.5322265625"/>
		</contour>
		<contour>
			<point x="239.434387207" y="494.0511474609" type="qcurve" smooth="yes"/>
			<point x="239.434387207" y="311.0511474609"/>
			<point x="394.7784423828" y="101.0925292969"/>
			<point x="516.0827026367" y="101.0925292969" type="qcurve" smooth="yes"/>
			<point x="645.9470825195" y="101.0925292969"/>
			<point x="808.2712402344" y="201.2388916016"/>
			<point x="830.3884887695" y="261.3586425781" type="qcurve"/>
			<point x="836.3884887695" y="797.3946533203" type="line"/>
			<point x="811.6137695312" y="852.7592773438"/>
			<point x="635.0229492188" y="919.8657226562"/>
			<point x="574.7815551758" y="919.8657226562" type="qcurve" smooth="yes"/>
			<point x="405.4772949219" y="919.8657226562"/>
			<point x="239.434387207" y="669.0511474609"/>
		</contour>
	</outline>
	<anchor name="bottom" x="594" y="0"/>
	<anchor name="top" x="594" y="1000"/>
</glyph>
<glyph name="r" format="2">
	<unicode hex="0072"/>
	<advance width="867"/>
	<outline>
		<contour>
			<point x="75.9973144531" y="0" type="line"/>
			<point x="75.9973144531" y="79.99609375" type="line"/>
			<point x="223.9973144531" y="114.99609375" type="line"/>
			<point x="225.9973144531" y="508.9692382812" type="line"/>
			<point x="223.9973144531" y="847.9731445312" type="line"/>
			<point x="65.9973144531" y="877.9731445312" type="line"/>
			<point x="65.9973144531" y="969.9692382812" type="line"/>
			<point x="328.3076171875" y="1001.9692382812" type="line"/>
			<point x="368.3076171875" y="974.9692382812" type="line"/>
			<point x="388.3220214844" y="821.9692382812" type="line"/>
			<point x="453.4856567383" y="903.9692382812"/>
			<point x="622.9770507812" y="1001.9559326172"/>
			<point x="741.0678100586" y="1001.9692382812" type="qcurve" smooth="yes"/>
			<point x="840.3837280273" y="1001.9692382812" type="line"/>
			<point x="840.3837280273" y="721.9692382812" type="line"/>
			<point x="731.3212280273" y="721.9692382812" type="line"/>
			<point x="683.3212280273" y="862.9692382812" type="line"/>
			<point x="614.1015014648" y="862.9692382812"/>
			<point x="455.6431274414" y="773.9692382812"/>
			<point x="390.9187011719" y="696.9692382812" type="qcurve"/>
			<point x="390.9187011719" y="508.9692382812" type="line"/>
			<point x="392.9187011719" y="114.99609375" type="line"/>
			<point x="560.9187011719" y="79.99609375" type="line"/>
			<point x="560.9187011719" y="0" type="line"/>
		</contour>
	</outline>
	<anchor name="bottom" x="432" y="0"/>
	<anchor name="top" x="486" y="1000"/>
</glyph>
<glyph name="s" format="2">
	<unicode hex="0073"/>
	<advance width="922"/>
	<outline>
		<contour>
			<point x="103.4916381836" y="0" type="line"/>
			<point x="103.4916381836" y="339" type="line"/>
			<point x="213.4291381836" y="339" type="line"/>
			<point x="228.4291381836" y="280" type="line" smooth="yes"/>
			<point x="251.0935058594" y="189.3494262695"/>
			<point x="363.0951538086" y="78"/>
			<point x="480.7763671875" y="78" type="qcurve" smooth="yes"/>
			<point x="577.9468383789" y="78"/>
			<point x="701.4124755859" y="170.5285644531"/>
			<point x="701.4124755859" y="259.1467285156" type="qcurve" smooth="yes"/>
			<point x="701.4124755859" y="352.0201416016"/>
			<point x="602.7044677734" y="437.4927978516"/>
			<point x="437.3786010742" y="487.3927612305" type="qcurve" smooth="yes"/>
			<point x="266.3290405273" y="538.0381469727"/>
			<point x="140.1823730469" y="652.6822509766"/>
			<point x="140.1823730469" y="771.3023681641" type="qcurve" smooth="yes"/>
			<point x="140.1823730469" y="891.2238769531"/>
			<point x="309.9898071289" y="1032.9692382812"/>
			<point x="456.2210083008" y="1032.9692382812" type="qcurve" smooth="yes"/>
			<point x="529.1783447266" y="1032.9692382812"/>
			<point x="624.5986328125" y="990.998046875"/>
			<point x="662.3787841797" y="961.998046875" type="qcurve"/>
			<point x="685.3787841797" y="1001.9692382812" type="line"/>
			<point x="788.2537841797" y="1001.9692382812" type="line"/>
			<point x="788.2537841797" y="705.9692382812" type="line"/>
			<point x="678.3787841797" y="705.9692382812" type="line"/>
			<point x="654.3787841797" y="793.6480102539" type="line" smooth="yes"/>
			<point x="639.7075195312" y="841.6680908203"/>
			<point x="539.6804199219" y="921.9692382812"/>
			<point x="458.8469848633" y="921.9692382812" type="qcurve" smooth="yes"/>
			<point x="376.3788452148" y="921.9692382812"/>
			<point x="308.2561035156" y="853.4998168945"/>
			<point x="308.2561035156" y="790.7446289062" type="qcurve" smooth="yes"/>
			<point x="308.2561035156" y="727.4583740234"/>
			<point x="392.8760375977" y="656.7733154297"/>
			<point x="609.7262573242" y="602.0369873047" type="qcurve" smooth="yes"/>
			<point x="712.8863525391" y="568.3913574219"/>
			<point x="871.9388427734" y="422.2476806641"/>
			<point x="871.9388427734" y="277.0902099609" type="qcurve" smooth="yes"/>
			<point x="871.9388427734" y="139.9703369141"/>
			<point x="677.5276489258" y="-30"/>
			<point x="506.3977661133" y="-30" type="qcurve" smooth="yes"/>
			<point x="408.5188598633" y="-30"/>
			<point x="305.5814819336" y="28.9567871094"/>
			<point x="245.3666381836" y="72.9711914062" type="qcurve"/>
			<point x="190.4291381836" y="0" type="line"/>
		</contour>
	</outline>
	<anchor name="bottom" x="468" y="0"/>
	<anchor name="top" x="416" y="1000"/>
</glyph>
<glyph name="u" format="2">
	<unicode hex="0075"/>
	<advance width="1256"/>
	<outline>
		<contour>
			<point x="55.8695678711" y="877.8400878906" type="line"/>
			<point x="55.8695678711" y="967.8361816406" type="line"/>
			<point x="300.8341674805" y="1001.8361816406" type="line"/>
			<point x="349.8341674805" y="1001.8361816406" type="line"/>
			<point x="384.8341674805" y="965.8361816406" type="line"/>
			<point x="381.8341674805" y="522.7338867188" type="line"/>
			<point x="381.8341674805" y="336.501953125" type="line" smooth="yes"/>
			<point x="381.8341674805" y="236.9340820312"/>
			<point x="495.9714355469" y="111.5307617188"/>
			<point x="548.0980834961" y="111.5307617188" type="qcurve" smooth="yes"/>
			<point x="579.4696044922" y="111.5307617188"/>
			<point x="780.6533813477" y="178.84765625"/>
			<point x="864.4310913086" y="263.84765625" type="qcurve"/>
			<point x="865.4310913086" y="472.7338867188" type="line"/>
			<point x="863.4310913086" y="847.8400878906" type="line"/>
			<point x="709.4310913086" y="877.8400878906" type="line"/>
			<point x="709.4310913086" y="967.8361816406" type="line"/>
			<point x="949.4100952148" y="1001.8361816406" type="line"/>
			<point x="998.4100952148" y="1001.8361816406" type="line"/>
			<point x="1033.4100952148" y="965.8361816406" type="line"/>
			<point x="1030.4100952148" y="472.7338867188" type="line"/>
			<point x="1033.4100952148" y="144.6567382812" type="line"/>
			<point x="1190.4100952148" y="114.6567382812" type="line"/>
			<point x="1190.4100952148" y="34" type="line"/>
			<point x="929.4310913086" y="0" type="line"/>
			<point x="888.4310913086" y="27" type="line"/>
			<point x="864.3734741211" y="147" type="line"/>
			<point x="809.43359375" y="72"/>
			<point x="606.9293823242" y="-21"/>
			<point x="503.5983276367" y="-21" type="qcurve" smooth="yes"/>
			<point x="351.0978393555" y="-21"/>
			<point x="212.8695678711" y="177.7407226562"/>
			<point x="212.8695678711" y="308" type="qcurve" smooth="yes"/>
			<point x="212.8695678711" y="379.9068603516"/>
			<point x="220.856262207" y="497.7604980469"/>
			<point x="219.8695678711" y="522.7338867188" type="qcurve" smooth="yes"/>
			<point x="212.8695678711" y="847.8400878906" type="line"/>
		</contour>
	</outline>
	<anchor name="bottom" x="622" y="0"/>
	<anchor name="ogonek" x="1030" y="20"/>
	<anchor name="top" x="622" y="1000"/>
	<anchor name="topright" x="1005" y="1000"/>
	<anchor name="cy_descender" x="1178" y="80"/>
</glyph>
<glyph name="v" format="2">
	<unicode hex="0076"/>
	<advance width="1085"/>
	<outline>
		<contour>
			<point x="-7.5" y="915.9731445312" type="line"/>
			<point x="-7.5" y="1001.9692382812" type="line"/>
			<point x="432.1215820312" y="1001.9692382812" type="line"/>
			<point x="432.1215820312" y="915.9731445312" type="line"/>
			<point x="295.1215820312" y="878.9731445312" type="line"/>
			<point x="429.8312988281" y="517.6995849609" type="line"/>
			<point x="486" y="301" type="line"/>
			<point x="523" y="187" type="line"/>
			<point x="533" y="187" type="line"/>
			<point x="570" y="301" type="line"/>
			<point x="672.5375976562" y="538.5692138672" type="line"/>
			<point x="791.0166015625" y="885.9731445312" type="line"/>
			<point x="649.0166015625" y="915.9731445312" type="line"/>
			<point x="649.0166015625" y="1001.9692382812" type="line"/>
			<point x="1091.6240234375" y="1001.9692382812" type="line"/>
			<point x="1091.6240234375" y="915.9731445312" type="line"/>
			<point x="944.6240234375" y="880.9731445312" type="line"/>
			<point x="794.6262207031" y="509.1534423828" type="line"/>
			<point x="604.7329101562" y="-8" type="line"/>
			<point x="456.7666015625" y="-8" type="line"/>
			<point x="273.7014160156" y="483.9532470703" type="line"/>
			<point x="107.5" y="880.9731445312" type="line"/>
		</contour>
	</outline>
	<anchor name="bottom" x="513" y="0"/>
	<anchor name="top" x="513" y="1000"/>
</glyph>
<glyph name="w" format="2">
	<unicode hex="0077"/>
	<advance width="1629"/>
	<outline>
		<contour>
			<point x="450.1467285156" y="-8" type="line"/>
			<point x="258.6881103516" y="502.7366943359" type="line"/>
			<point x="107.5" y="880.9731445312" type="line"/>
			<point x="-7.5" y="915.9731445312" type="line"/>
			<point x="-7.5" y="1001.9692382812" type="line"/>
			<point x="421.951171875" y="1001.9692382812" type="line"/>
			<point x="421.951171875" y="915.9731445312" type="line"/>
			<point x="284.951171875" y="878.9731445312" type="line"/>
			<point x="395.1358642578" y="531.2706298828" type="line"/>
			<point x="483" y="294" type="line"/>
			<point x="521" y="180" type="line"/>
			<point x="531" y="180" type="line"/>
			<point x="568" y="294" type="line"/>
			<point x="630.1058349609" y="450.6818847656" type="line"/>
			<point x="725" y="747" type="line"/>
			<point x="667.4077148438" y="880.9731445312" type="line"/>
			<point x="552.4077148438" y="915.9731445312" type="line"/>
			<point x="552.4077148438" y="1001.9692382812" type="line"/>
			<point x="987.7375488281" y="1001.9692382812" type="line"/>
			<point x="987.7375488281" y="915.9731445312" type="line"/>
			<point x="840.7375488281" y="878.9731445312" type="line"/>
			<point x="986.7033691406" y="460.4086914062" type="line"/>
			<point x="1045" y="294" type="line"/>
			<point x="1082" y="180" type="line"/>
			<point x="1092" y="180" type="line"/>
			<point x="1128" y="294" type="line"/>
			<point x="1225.0668945312" y="551.3721923828" type="line"/>
			<point x="1326.0246582031" y="885.9731445312" type="line"/>
			<point x="1184.0246582031" y="915.9731445312" type="line"/>
			<point x="1184.0246582031" y="1001.9692382812" type="line"/>
			<point x="1636.2333984375" y="1001.9692382812" type="line"/>
			<point x="1636.2333984375" y="915.9731445312" type="line"/>
			<point x="1479.2333984375" y="880.9731445312" type="line"/>
			<point x="1308" y="496" type="line"/>
			<point x="1153.2138671875" y="-8" type="line"/>
			<point x="1002.2839355469" y="-8" type="line"/>
			<point x="830" y="480" type="line"/>
			<point x="790" y="595" type="line"/>
			<point x="780" y="595" type="line"/>
			<point x="741" y="480" type="line"/>
			<point x="596.7946777344" y="-8" type="line"/>
		</contour>
	</outline>
	<anchor name="bottom" x="787" y="0"/>
	<anchor name="top" x="787" y="1000"/>
</glyph>
<glyph name="x" format="2">
	<unicode hex="0078"/>
	<advance width="1123"/>
	<outline>
		<contour>
			<point x="38.5" y="0" type="line"/>
			<point x="38.5" y="79.99609375" type="line"/>
			<point x="221.5" y="114.99609375" type="line"/>
			<point x="444" y="480" type="line"/>
			<point x="171.2150878906" y="880.9731445312" type="line"/>
			<point x="36.2150878906" y="915.9731445312" type="line"/>
			<point x="36.2150878906" y="1001.9692382812" type="line"/>
			<point x="490.9587402344" y="1001.9692382812" type="line"/>
			<point x="490.9587402344" y="915.9731445312" type="line"/>
			<point x="366.9587402344" y="878.9731445312" type="line"/>
			<point x="454" y="701" type="line"/>
			<point x="527" y="602" type="line"/>
			<point x="537" y="602" type="line"/>
			<point x="603" y="701" type="line"/>
			<point x="769.5900878906" y="885.9731445312" type="line"/>
			<point x="628.5900878906" y="915.9731445312" type="line"/>
			<point x="628.5900878906" y="1001.9692382812" type="line"/>
			<point x="1086.9006347656" y="1001.9692382812" type="line"/>
			<point x="1086.9006347656" y="915.9731445312" type="line"/>
			<point x="919.9006347656" y="880.9731445312" type="line"/>
			<point x="594" y="524" type="line"/>
			<point x="968.7292480469" y="114.99609375" type="line"/>
			<point x="1116.7292480469" y="79.99609375" type="line"/>
			<point x="1116.7292480469" y="0" type="line"/>
			<point x="645.4575195312" y="0" type="line"/>
			<point x="645.4575195312" y="79.99609375" type="line"/>
			<point x="769.4575195312" y="115.99609375" type="line"/>
			<point x="584" y="305" type="line"/>
			<point x="511" y="402" type="line"/>
			<point x="501" y="402" type="line"/>
			<point x="439" y="305" type="line"/>
			<point x="375.455078125" y="109.99609375" type="line"/>
			<point x="502.455078125" y="79.99609375" type="line"/>
			<point x="502.455078125" y="0" type="line"/>
		</contour>
	</outline>
	<anchor name="bottom" x="522" y="0"/>
	<anchor name="top" x="522" y="1000"/>
	<anchor name="cy_descender" x="1043" y="80"/>
</glyph>
<glyph name="y" format="2">
	<unicode hex="0079"/>
	<advance width="1026"/>
	<outline>
		<contour>
			<point x="-9.9999999999" y="910.0000000001" type="line"/>
			<point x="-9.9999999999" y="1000.0000000001" type="line"/>
			<point x="414" y="1000.0000000001" type="line"/>
			<point x="414" y="910.0000000001" type="line"/>
			<point x="281" y="873.0000000001" type="line"/>
			<point x="403" y="535" type="line"/>
			<point x="486" y="301" type="line"/>
			<point x="523" y="187" type="line"/>
			<point x="533" y="187" type="line"/>
			<point x="570" y="301" type="line"/>
			<point x="655.9999999999" y="538" type="line"/>
			<point x="777" y="880.0000000001" type="line"/>
			<point x="640" y="910.0000000001" type="line"/>
			<point x="640" y="1000.0000000001" type="line"/>
			<point x="1055.9999999999" y="1000.0000000001" type="line"/>
			<point x="1055.9999999999" y="910.0000000001" type="line"/>
			<point x="907.9999999999" y="875.0000000001" type="line"/>
			<point x="760.0000000001" y="497" type="line"/>
			<point x="470.0000000001" y="-287" type="line" smooth="yes"/>
			<point x="428" y="-398.0000000001"/>
			<point x="286" y="-492"/>
			<point x="197" y="-492" type="qcurve"/>
			<point x="39" y="-460" type="line"/>
			<point x="39" y="-370" type="line"/>
			<point x="140" y="-370" type="line" smooth="yes"/>
			<point x="194" y="-370"/>
			<point x="342" y="-308"/>
			<point x="383" y="-195" type="qcurve" smooth="yes"/>
			<point x="469.546875" y="37.734375" type="line"/>
			<point x="460.7026367189" y="37.734375" type="line"/>
			<point x="266" y="481" type="line"/>
			<point x="108" y="875.0000000001" type="line"/>
		</contour>
	</outline>
	<anchor name="bottom" x="782" y="0"/>
	<anchor name="top" x="524" y="1000"/>
</glyph>
<glyph name="z" format="2">
	<unicode hex="007A"/>
	<advance width="822"/>
	<outline>
		<contour>
			<point x="12.7173461914" y="0" type="line"/>
			<point x="12.7173461914" y="90" type="line"/>
			<point x="605.2482299805" y="885.9692382812" type="line"/>
			<point x="179.3528442383" y="885.9692382812" type="line"/>
			<point x="142.3528442383" y="711.9692382812" type="line"/>
			<point x="40.0403442383" y="711.9692382812" type="line"/>
			<point x="40.0403442383" y="1001.9692382812" type="line"/>
			<point x="800.5791625977" y="1001.9692382812" type="line"/>
			<point x="800.5791625977" y="912.9692382812" type="line"/>
			<point x="207.378112793" y="116" type="line"/>
			<point x="690.8467407227" y="116" type="line"/>
			<point x="727.8467407227" y="290" type="line"/>
			<point x="829.5342407227" y="290" type="line"/>
			<point x="829.5342407227" y="0" type="line"/>
		</contour>
	</outline>
	<anchor name="bottom" x="443" y="0"/>
	<anchor name="top" x="443" y="1000"/>
	<anchor name="_liga" x="0" y="0"/>
</glyph>
<glyph name="idotless" format="2">
	<unicode hex="0131"/>
	<advance width="586"/>
	<outline>
		<contour>
			<point x="86.3258666992" y="0" type="line"/>
			<point x="86.3258666992" y="79.99609375" type="line"/>
			<point x="234.3258666992" y="114.99609375" type="line"/>
			<point x="236.3258666992" y="527" type="line"/>
			<point x="229.2457885742" y="847.9731445312" type="line"/>
			<point x="81.3258666992" y="877.9731445312" type="line"/>
			<point x="81.3258666992" y="967.9692382812" type="line"/>
			<point x="333.3336791992" y="1001.9692382812" type="line"/>
			<point x="380.3336791992" y="1001.9692382812" type="line"/>
			<point x="403.3336791992" y="962.9692382812" type="line"/>
			<point x="396.3336791992" y="527" type="line"/>
			<point x="398.3336791992" y="114.99609375" type="line"/>
			<point x="546.3336791992" y="79.99609375" type="line"/>
			<point x="546.3336791992" y="0" type="line"/>
		</contour>
	</outline>
	<anchor name="bottom" x="320" y="0"/>
	<anchor name="top" x="320" y="1000"/>
	<anchor name="ogonek" x="513" y="0"/>
	<anchor name="liga" x="639" y="0"/>
</glyph>
